<svg xmlns="http://www.w3.org/2000/svg" width="124" height="188" viewBox="0 0 124.232 188.467"><path fill="#fff" d="m 17722.032,-407.0613 c 0,0 349.188,-30.3821 364.743,-28.4512 15.556,1.9309 26.069,12.6473 27.249,27.8049 1.18,15.1575 43.447,508.0185 46.879,529.6445 3.433,21.6261 19.76,97.607 -8.882,102.6273 -28.643,5.0204 -319.791,33.5976 -339.101,33.9838 -19.309,0.3862 -46.772,-1.6412 -51.921,-45.4726 -5.149,-43.8313 -25.354,-356.1445 -27.5,-382.9839 -2.145,-26.8395 -32.053,-221.9376 -11.467,-237.1528 z" transform="translate(-188.85999,94.233287) matrix(0.26458333,0,0,0.26458333,-4495.7803,22.53578)"/><path fill="#030303" d="m 17800.808,268.70687 c -5.93,-1.6685 -16.637,-6.9198 -23.794,-11.6698 -14.87,-9.8705 -17.065,-14.5835 -19.272,-41.3669 -0.794,-9.6474 -2.923,-31.2225 -4.728,-47.9445 -5.891,-54.528 -13.073,-154.778597 -18.685,-260.771497 -2.215,-41.848603 -5.69,-81.105303 -11.595,-130.970503 -3.121,-26.3695 -7.268,-63.7311 -9.213,-83.0258 -1.947,-19.2948 -4.135,-40.3436 -4.862,-46.7753 -4.123,-36.4155 -4.078,-38.062 1.291,-47.614 5.807,-10.3341 10.844,-13.494 24.459,-15.3441 11.669,-1.5849 79.288,-6.956 148.512,-11.7961 28.943,-2.0236 66.305,-5.3067 83.025,-7.2957 16.724,-1.9891 50.929,-4.189 76.012,-4.8891 40.928,-1.1422 46.803,-0.82 57.298,3.1417 17.525,6.6153 20.226,13.8174 22.657,60.4098 1.074,20.581 3.972,53.2067 6.441,72.5015 2.469,19.2947 5.638,55.0777 7.046,79.5176 5.457,94.7676 13.334,190.601603 20.084,244.400303 5.94,47.3227 19.783,180.012797 19.783,189.624997 0,9.1088 -13.368,24.8832 -23.389,27.6003 -4.501,1.2206 -28.707,3.9357 -53.79,6.0334 -97.552,8.1582 -168.776,15.6258 -204.642,21.4564 -44.997,7.3153 -77.637,8.9982 -92.638,4.7773 z m 66.911,-22.5751 c 39.588,-6.4895 81.47,-11.7515 93.532,-11.7515 5.647,0 10.918,-1.0524 11.712,-2.3389 0.796,-1.2862 0.14,-2.3387 -1.465,-2.3387 -5.278,0 -13.737,-10.0358 -13.654,-16.1942 0.106,-8.0786 5.047,-16.5195 11.869,-20.301 5.092,-2.8223 4.187,-3.1053 -10.164,-3.1807 -8.662,-0.046 -38.657,1.5962 -66.654,3.6484 -55.951,4.1015 -74.714,3.5599 -87.335,-2.5212 -13.483,-6.4963 -15.472,-13.3571 -18.313,-63.1872 -1.392,-24.44 -3.562,-51.277197 -4.821,-59.638297 -6.055,-40.2345 -18.03,-153.811 -21.205,-201.133303 -1.339,-19.9379 -3.93,-48.3539 -5.759,-63.1465 -5.938,-48.0237 -8.042,-79.807 -8.49,-128.1975 -0.409,-44.375 -0.14,-47.8123 4.142,-52.0891 5.929,-5.9293 28.414,-8.3918 93.218,-10.2094 58.71,-1.6465 139.139,-3.6932 204.277,-8.595 23.061,-1.73539 42.716,-1.42373 42.283,5.02519 0,0 0.08,8.98121 1.108,15.73561 0.736,4.8236 4.007,34.5551 7.267,66.0699 3.259,31.5148 7.459,70.4552 9.333,86.534 1.873,16.079 5.527,60.2815 8.12,98.2279 7.706,112.850003 11.725,159.994303 17.754,208.356703 3.14,25.196997 5.712,53.186697 5.712,62.199297 0,19.5987 -2.658,22.9782 -20.765,26.4121 -21.91,4.1551 -85.053,11.8243 -109.868,13.3442 -21.607,1.3234 -23.625,1.813 -18.711,4.5383 3.029,1.6801 9.42,3.0921 14.198,3.1375 17.827,0.1702 18.289,22.758 0.667,32.4497 -4.593,2.5253 -4.586,2.5736 0.344,2.6434 15.446,0.2188 147.885,-13.1024 154.143,-15.504 4.871,-1.8693 4.093,-16.0475 -4.927,-89.6689 -3.23,-26.369398 -8.44,-68.993297 -11.58,-94.719597 -10.058,-82.4333 -16.45,-156.477603 -19.956,-231.200103 -1.258,-26.8273 -4.385,-70.9917 -6.95,-98.1431 -2.565,-27.1512 -4.661,-58.1842 -4.661,-68.9623 0,-15.2272 -2.128,-21.9351 -3.967,-36.15334 -1.281,-9.90711 -4.765,-17.41439 -10.951,-19.80736 -5.106,-1.9753 -81.24,-0.469 -130.085,4.0928 -26.369,2.4627 -58.995,5.1378 -72.501,5.9449 -13.507,0.807 -41.336,3.4747 -61.843,5.9282 -20.946,2.5057 -52.439,4.4605 -71.857,4.4605 -17.995,2.383 -28.883,-0.97116 -37.266,15.03513 -5.492,10.483 -6.819,40.92247 -1.377,78.51537 19.567,135.2415 21.688,156.4609 28.534,285.328503 1.473,27.7202004 6.637,101.5232 11.618,166.051697 1.837,23.7968 4.015,53.5334 4.84,66.0813 1.76,26.7614 3.754,30.1836 22.219,38.1493 16.374,7.064 39.734,7.3839 78.24,1.0713 z m 130.491,-36.9466 c 4.566,-5.0447 2.511,-8.9942 -5.757,-11.0692 -9.088,-2.281 -20.528,4.5371 -20.623,12.292 -0.05,4.7968 21.851,3.7813 26.38,-1.2228 z m -129.579,-32.0705 c 14.487,-1.9108 54.413,-5.1071 88.725,-7.1031 34.311,-1.9958 83.677,-6.221 109.705,-9.389 26.028,-3.168 50.497,-5.7601 54.377,-5.7601 6.948,0 7.053,-0.1834 7.066,-12.2786 0,-6.7531 -2.582,-33.3273 -5.754,-59.053397 -7.646,-62.0446 -12.022,-109.6114 -16.455,-178.915 -2.017,-31.514803 -5.742,-80.979603 -8.283,-109.921703 -6.097,-69.4949 -8.968,-104.4883 -11.688,-142.4591 -1.237,-17.2525 -2.637,-31.7558 -3.111,-32.2298 -0.473,-0.4741 -31.263,0.8764 -68.419,3.0007 -37.156,2.1244 -109.128,4.5247 -159.937,5.3341 -50.811,0.8093 -93.479,2.1882 -94.82,3.0639 -1.603,1.0473 -1.844,8.2511 -0.704,21.0487 0.954,10.7013 2.875,38.4007 4.27,61.5543 1.394,23.1537 4.046,54.2008 5.896,68.9934 1.848,14.7925 4.521,41.6298 5.94,59.6382 1.42,18.0086 6.763,76.945203 11.872,130.970603 12.896,136.343197 13.673,146.297997 13.717,175.523797 0.02,16.935 1.005,26.8106 2.843,28.6497 3.867,3.867 32.626,3.5706 64.76,-0.6676 z m -20.503,-11.6249 c -16.427,-7.59745 105.701,-12.8576 144.715,-16.4988 31.409,-2.9316 110.214,-5.5637 114.882,-3.8372 4.883,1.8068 4.917,1.996 0.677,3.7081 -2.458,0.9925 -26.569,2.7428 -53.582,3.8897 -44.255,1.879 -74.046,3.9534 -163.712,11.3998 -30.73,2.552 -40.866,2.31591 -42.98,1.3384 z m 7.951,-25.36053 c 6.431,-1.1165 23.743,-0.77727 38.537,-2.66617 14.792,-1.8888 52.154,-6.69 83.025,-10.6691 57.393,-7.3978 114.238,-11.5431 126.466,-9.2231 5.852,1.1102 6.166,1.5091 2.166,2.7562 -2.572,0.8021 -14.675,2.1252 -26.896,2.9405 -12.22,0.8153 -50.574,3.41369 -84.89,8.4359 -120.018,17.56489 -172.567,14.35507 -138.408,8.42577 z m -31.159,-25.49347 c -1.544,-1.5435 -2.857,-9.1737 -2.92,-16.955998 -0.141,-17.187599 -5.487,-64.028099 -7.958,-69.694899 -1.601,-3.6713 -0.14,-4.0975 14.253,-4.1385 8.821,-0.024 27.614,-1.6365 41.764,-3.5805 27.353,-3.7586 49.008,-6.1835 92.38,-10.3445999 14.794,-1.4192 43.99,-5.2351 64.885,-8.4795997 45.677,-7.0934 54.38,-6.8498 58.427,1.6351997 3.358,7.0397999 8.636,81.6615999 5.951,84.1043999 -2.188,1.9893 -32.512,5.614599 -87.166,10.420899 -67.207,5.910398 -152.537,15.090898 -162.542,17.487598 -12.212,2.9253 -13.734,2.8848 -17.074,-0.454 z m 48.22,-14.5514 c 14.56,-1.813998 66.129,-6.667998 114.599,-10.786697 48.473,-4.1188 89.46,-7.8634 91.088,-8.3214 2.304,-0.6491 2.625,-8.9647 1.455,-37.7287 -0.826,-20.2931 -2.35,-37.8273999 -3.388,-38.9655999 -1.084,-1.1864 -17.24,0.542 -37.875,4.0522 -19.791,3.3667999 -57.483,7.7232999 -83.763,9.6813999 -26.278,1.9581 -55.671,4.5936 -65.318,5.8567 -9.648,1.2631 -29.118,2.81801 -43.268,3.4559 -14.148,0.6378 -11.887,1.824828 -21.679,2.812228 -8.219,0.828824 1.845,26.751672 4.123,46.373772 3.524,30.358597 3.411,30.072097 11.154,28.318497 3.522,-0.7974 18.314,-2.9341 32.872,-4.7483 z m 9.534,-28.785697 c -2.064,-0.4644 -5.153,-3.4586 -6.863,-6.6538 -2.693,-5.0308 -2.571,-6.3471 0.902,-9.8195 3.786,-3.7875 4.085,-3.7188 5.382,1.2384 1.893,7.2437 8.044,6.5651 16.029,-1.7679 7.844,-8.1878 14.129,-9.0338 15.931,-2.1445 l 1.273,4.8719 7.025,-5.1947 c 8.762,-7.114417 11.704,-4.980534 17.125,-0.198 6.854,3.130258 9.64,4.119042 12.135,-1.1112 1.557,-4.6655 2.532,-5.355 4.137,-2.9196 1.702,2.5823 2.754,2.3325 5.536,-1.3147 3.045,-3.9875 4.107,-4.1442 9.291,-1.3694 4.584,2.4526 7.153,2.5414 11.832,0.4098 3.287,-1.4979 10.733,-2.7235 16.544,-2.7235 5.813,0 12.528,-1.0486 14.924,-2.3302 5.173,-2.7688 11.708,-0.7681 11.708,3.5839 0,3.4279 -23.865,11.2244 -30.038,9.813 -2.129,-0.4872 -6.638,0.4671 -10.016,2.1202 -3.379,1.6533 -11.296,0.591332 -16.371,3.0186 -25.098,12.002694 -29.682,-7.1769 -43.707,4.940586 -4.682,4.044547 -9.543,4.036314 -15.036,1.185714 -5.544,-2.8756 -6.907,-2.7772 -11.625,0.84 -6.572,5.0374 -11.212,6.6276 -16.118,5.5249 z m -26.648,-84.958 c 18.007,-2.3182 55.37,-6.4359 83.025,-9.1503 27.657,-2.7146 67.862,-6.999 89.348,-9.5208 21.485,-2.5219 40.166,-4.5853 41.514,-4.5853 2.887,0 3.306,6.2096 0.536,7.9223 -2.6,1.6062 -61.613,7.5246 -118.534,11.8878 -25.726,1.972 -57.825,4.6006 -71.331,5.8414 -13.507,1.2409 -35.191,5.1931596 -44.197,5.0731596 -14.854,-0.1978 -10.069,-3.6438592 19.639,-7.4682596 z m -22.802,-29.2242 c -3.481,-3.6258 -1.586,-5.5963 8.184,-8.512 l 9.941,-2.9663 -15.203,-1.2166 c -12.768,-1.0219 -14.452,-1.6343 -10.525,-3.8248 6.071,-3.385 52.364,-10.8518 61.097,-9.8543 11.048,1.2622 8.194,7.1862 -4.966,10.305 l -11.693,2.771 12.139,0.2779 c 6.678,0.1526 12.76,1.2803 13.517,2.5055 3.344,5.4091 -57.559,15.6561 -62.491,10.5146 z m 143.223,-15.1294 c -3.133,-5.8509 -0.858,-10.6119 3.387,-7.0898 2.131,1.7692 4.073,1.1967 7.032,-2.0726 3.377,-3.7319 5.064,-4.0717 9.711,-1.9553 6.831,3.1137 7.325,6.4886 0.943,6.4886 -2.571,0 -6.781,2.1048 -9.354,4.6776 -5.907,5.9055 -8.539,5.8946 -11.719,-0.05 z m 38.03,-7.3167 c -4.366,-4.368 -3.531,-7.3721 1.668,-6.0123 2.526,0.6604 5.811,-0.2692 7.302,-2.0659 4.878,-5.8763 10.03,-3.6186 11.226,4.9189 0.18,1.2863 -1.527,2.5355 -3.796,2.7762 -2.266,0.2407 -6.227,1.0834 -8.8,1.8729 -2.572,0.7895 -5.992,0.1193 -7.6,-1.4898 z m 43.125,-2.3498 c -6.055,-3.3882 -4.711,-6.9361 1.989,-5.2544 4.031,1.0115 7.402,0.1701 10.481,-2.617 3.695,-3.3446 5.195,-3.5642 8.067,-1.1815 3.728,3.0937 2.528,8.1464 -1.365,5.7414 -1.254,-0.7748 -3.549,-0.4292 -5.101,0.7683 -5.048,3.8967 -10.04,4.799 -14.071,2.5432 z m -229.54,-27.5436 c -3.491,-5.645803 13.933,-8.665603 88.48,-15.334903 97.35,-8.7097 121.268,-9.7039 125.009,-5.1959 6.656,8.0213 -5.013,9.5963 -133.403,18.003903 -83.596,5.4745 -78.368,5.3094 -80.086,2.5269 z m -12.965,-30.325403 c 0,-1.1543 6.578,-3.2259 14.618,-4.6035 31.312,-5.3659 192.438,-23.7017 208.278,-23.7017 10.356,0 12.847,3.3804 5.792,7.8618 -6.914,4.3922 -27.761,6.9604 -125.782,15.4964 -85.815,7.4729 -102.906,8.2947 -102.906,4.947 z m -5.595,-30.988 c -0.621,-3.0265 -1.744,-14.1622 -2.495,-24.7458 -0.751,-10.5837 -4.092,-31.6324 -7.423,-46.7751 -4.908,-22.3002 -7.33,-48.00658 -8.051,-81.46208 -1.185,-30.29454 -4.118,-29.92266 19.491,-29.99362 10.602,-0.7228 31.905,-1.9427 47.34,-2.711 15.436,-0.7683 49.115,-3.4471 74.841,-5.9532 25.726,-2.5059 61.639,-5.2211 79.805,-6.0341 25.156,0.55681 34.455,-3.9625 36.879,6.79817 3.527,15.64966 18.248,117.73743 18.604,138.76293 0.407,24.0367 -2.668,29.9706 -15.84,30.5629 -3.954,0.1777 -18.857,1.9905 -33.12,4.0286 -14.262,2.038 -54.78,6.3955 -90.041,9.6833 -65.293,6.0878 -97.942,9.6071 -111.366,12.0035 -6.499,1.1603 -7.646,0.6064 -8.624,-4.1645 z m 39.508,-5.5536 c 10.29,-1.901 21.766,-3.4567 25.504,-3.4569 6.434,-3e-4 6.589,-0.2272 2.922,-4.2775 -5.565,-6.1506 -4.795,-14.277 2.776,-29.2868 3.655,-7.2457 6.11,-13.7086 5.456,-14.3619 -0.652,-0.6536 -5.153,-1.1882 -10,-1.1882 -11.658,0 -19.733,-3.2734 -26.747,-10.8422 -7.209,-7.7787 -7.601,-12.7006 -0.497,-6.229 9.23,8.4057 15.634,10.3608 32.868,10.0329 22.185,-0.422 22.678,-0.3695 22.678,2.4171 0,1.3173 -3.699,7.7721 -8.22,14.3438 -9.603,13.9615 -12.159,22.1496 -8.661,27.7504 1.809,2.8966 1.774,4.7639 -0.123,6.6634 -3.399,3.4007 -3.306,3.3981 29.079,-0.7922 92.003,-11.904 125.788,-15.5772 133.657,-14.5316 8.604,1.143 8.87,0.968 7.724,-5.044 -0.651,-3.4254 -1.841,-13.0688 -2.641,-21.4298 -0.799,-8.3611 -3.957,-35.7246 -7.014,-60.8077 -3.058,-25.0833 -5.894,-51.3942 -6.301,-58.4689 l -0.742,-12.8633 -17.509,0.7469 c -9.63,0.4108 -40.137,2.8598 -67.793,5.4423 -27.654,2.5825 -106.083,6.09027 -135.892,6.81457 -20.803,1.24792 -23.763,-6.48232 -21.583,26.49803 0.662,14.2909 3.171,37.5604 5.578,51.7098 8.577,50.4107 11.665,70.3435 12.936,83.5208 1.252,12.9768 1.468,13.3256 7.564,12.2273 3.45,-0.6221 14.693,-2.6862 24.985,-4.5873 z m 138.554,-25.8867 c -3.328,-3.3285 -1.658,-4.6942 11.005,-8.9986 7.009,-2.3823 13.185,-5.4944 13.725,-6.9159 2.22,-5.8392 -3.591,-13.379 -15.018,-19.4882 -6.671,-3.566 -14.099,-8.3435 -16.506,-10.6162 -4.125,-3.8941 -4.157,-4.559 -0.554,-11.5272 4.627,-8.9461 3.672,-38.8187 -1.593,-49.8257 -6.563,-13.7253 -25.218,-8.9275 -51.46,13.2357 -21.944,18.533 -25.632,20.6764 -35.578,20.6764 -7.548,0 -10.365,-1.5144 -17.404,-9.3551 -4.618,-5.1453 -10.133,-9.355 -12.254,-9.355 -4.636,0 -14.952,10.3886 -22.486,22.6439 -5.054,8.2253 -5.493,8.4683 -5.551,3.0825 -0.04,-3.2159 2.143,-9.5306 4.843,-14.0326 14.251,-23.7752 26.164,-27.2464 40.126,-11.6938 4.619,5.1452 10.474,9.355 13.012,9.355 2.536,0 13.927,-7.391 25.313,-16.4243 23.662,-18.7762 40.557,-28.0121 51.243,-28.0121 9.534,0 18.874,9.1538 22.291,21.8449 2.563,9.5126 1.772,42.949 -1.226,51.8604 -1.332,3.9628 0.464,5.7165 11.305,11.0325 15.067,7.39 20.728,14.7524 19.688,25.6031 -0.599,6.2385 -2.376,8.564 -9.034,11.8211 -10.205,4.9931 -21.563,7.4128 -23.887,5.0892 z m -165.013,-10.9542 c -3.706,-4.4662 0.446,-18.2246 7.497,-24.8502 5.71,-5.3634 11.22,-3.0347 6.605,2.7907 -1.23,1.5515 -3.552,7.0307 -5.162,12.176 -3.677,11.755 -5.61,13.8936 -8.94,9.8835 z m 203.034,-74.1581 c 0,-12.7051 -10.152,-18.1014 -20.017,-10.64 -5.38,4.0691 -8.048,4.4701 -8.048,1.2094 0,-3.3604 14.253,-11.6401 20.058,-11.6507 7.295,-0.018 15.529,9.9503 14.619,17.6928 -0.917,7.7909 -6.612,10.7099 -6.612,3.3885 z" transform="translate(-188.85999,94.233287) matrix(0.26458333,0,0,0.26458333,-4495.7803,22.53578)"/></svg>